<svg xmlns="http://www.w3.org/2000/svg" viewBox="0 0 32 32">
  <rect width="32" height="32" rx="7" fill="#3b1f5c"/>
  <rect x="9" y="9" width="14" height="14" rx="2" fill="none" stroke="#c084fc" stroke-width="2"/>
  <rect x="12" y="12" width="8" height="8" rx="1" fill="#c084fc"/>
  <line x1="6" y1="13" x2="9" y2="13" stroke="#c084fc" stroke-width="1.5" stroke-linecap="round"/>
  <line x1="6" y1="16" x2="9" y2="16" stroke="#c084fc" stroke-width="1.5" stroke-linecap="round"/>
  <line x1="6" y1="19" x2="9" y2="19" stroke="#c084fc" stroke-width="1.5" stroke-linecap="round"/>
  <line x1="23" y1="13" x2="26" y2="13" stroke="#c084fc" stroke-width="1.5" stroke-linecap="round"/>
  <line x1="23" y1="16" x2="26" y2="16" stroke="#c084fc" stroke-width="1.5" stroke-linecap="round"/>
  <line x1="23" y1="19" x2="26" y2="19" stroke="#c084fc" stroke-width="1.5" stroke-linecap="round"/>
  <line x1="13" y1="6" x2="13" y2="9" stroke="#c084fc" stroke-width="1.5" stroke-linecap="round"/>
  <line x1="16" y1="6" x2="16" y2="9" stroke="#c084fc" stroke-width="1.5" stroke-linecap="round"/>
  <line x1="19" y1="6" x2="19" y2="9" stroke="#c084fc" stroke-width="1.5" stroke-linecap="round"/>
  <line x1="13" y1="23" x2="13" y2="26" stroke="#c084fc" stroke-width="1.5" stroke-linecap="round"/>
  <line x1="16" y1="23" x2="16" y2="26" stroke="#c084fc" stroke-width="1.5" stroke-linecap="round"/>
  <line x1="19" y1="23" x2="19" y2="26" stroke="#c084fc" stroke-width="1.5" stroke-linecap="round"/>
</svg>
